<?xml version="1.0" standalone="no"?>
<!DOCTYPE svg PUBLIC "-//W3C//DTD SVG 1.1//EN" "http://www.w3.org/Graphics/SVG/1.1/DTD/svg11.dtd"><svg xmlns="http://www.w3.org/2000/svg" style="background-color:#FFF" width="500" height="500"><path stroke="black" fill="none" stroke-width="1" d="M212.16, 179.65L212.22, 179.76L212.38, 180.08L212.63, 180.59L212.94, 181.3L213.66, 183.24L214.37, 185.82L214.91, 188.96L215.11, 192.59L214.81, 196.62L214.41, 198.77L213.83, 200.99L213.89, 198.73L213.78, 196.57L213.12, 192.59L212.04, 189.09L210.73, 186.12L209.38, 183.73L208.18, 181.97L207.7, 181.33L207.33, 180.87L207.09, 180.59L207, 180.5L212.16, 179.65"/><path stroke="black" fill="none" stroke-width="1" d="M207.59, 182.9L208.28, 183.65L209.25, 184.87L210.38, 186.57L211.55, 188.75L212.66, 191.41L213.58, 194.56L214.21, 198.21L214.41, 202.36L214.14, 204.94L214.16, 207.69L214.49, 210.52L215.13, 213.37L216.09, 216.19L217.36, 218.9L218.97, 221.44L220.91, 223.73L220.56, 225.5L219.96, 226.91L219.19, 228.03L218.35, 228.92L216.83, 230.27L216.34, 230.86L216.16, 231.48L216.29, 232.06L216.59, 232.52L217.29, 233.37L217.44, 233.92L217.32, 234.63L216.81, 235.59L215.79, 236.86L216.34, 237.06L216.77, 237.53L217.03, 238.19L217.08, 238.97L216.9, 239.79L216.44, 240.57L215.66, 241.24L214.54, 241.73L214.42, 242.43L214.6, 243.42L214.87, 244.66L215.04, 246.06L214.9, 247.57L214.25, 249.1L213.68, 249.86L212.91, 250.6L211.91, 251.31L210.66, 251.99L209.03, 252.52L206.97, 252.81L204.53, 252.82L201.79, 252.56L198.83, 251.99L195.72, 251.1L192.52, 249.87L189.32, 248.3L186.17, 246.35L183.16, 244.02L180.35, 241.29L177.83, 238.13L175.64, 234.54L173.88, 230.5L172.62, 225.98L171.91, 220.98"/><path stroke="black" fill="none" stroke-width="1" d="M212.16, 179.65L211.94, 179.91L211.3, 180.68L210.3, 181.93L208.99, 183.64L207.43, 185.8L205.67, 188.39L203.78, 191.38L201.79, 194.75L199.76, 198.5L197.76, 202.58L195.82, 207L194.02, 211.71L192.4, 216.72L191.01, 221.98L189.91, 227.5L189.16, 233.23L187.47, 229.93L185.97, 226.71L183.47, 220.54L181.62, 214.73L180.34, 209.28L179.57, 204.19L179.26, 199.46L179.34, 195.1L179.75, 191.1L180.44, 187.47L181.33, 184.2L182.37, 181.3L183.5, 178.78L184.65, 176.62L185.77, 174.84L186.8, 173.43L187.66, 172.4L188.37, 171.91L189.33, 171.67L190.52, 171.65L191.91, 171.83L193.47, 172.18L195.15, 172.67L198.79, 173.97L202.56, 175.53L206.22, 177.14L209.51, 178.58L210.93, 179.18L212.16, 179.65"/><path stroke="black" fill="none" stroke-width="1" d="M194.31, 209.8L194.62, 209.65L195.49, 209.27L196.8, 208.79L198.45, 208.29L200.34, 207.91L202.35, 207.74L204.38, 207.91L206.32, 208.51L208.03, 209.13L209.45, 209.32L210.55, 209.17L211.3, 208.74L211.7, 208.13L211.71, 207.4L211.32, 206.64L210.5, 205.94L209.22, 205.36L207.52, 204.98L205.5, 204.84L203.27, 205.01L200.93, 205.53L198.59, 206.47L196.35, 207.87L194.31, 209.8"/><path stroke="black" fill="none" stroke-width="1" d="M195.91, 213.52L196.01, 213.57L196.29, 213.73L197.35, 214.24L198.92, 214.88L200.88, 215.46L203.08, 215.79L205.37, 215.7L207.62, 215L208.67, 214.37L209.66, 213.52L213.66, 215.96L210.15, 216.83L209.78, 216.96L208.76, 217.24L207.21, 217.51L205.26, 217.63L203.03, 217.44L200.65, 216.79L198.23, 215.54L197.05, 214.63L195.91, 213.52"/><path stroke="black" fill="none" stroke-width="1" d="M215.66, 235.49L215.79, 236.86L216.49, 238.23L216.37, 238.23L216.02, 238.21L214.83, 238.08L213.26, 237.71L211.66, 236.99L212.53, 237.04L213.31, 236.93L214.57, 236.39L215.38, 235.78L215.59, 235.57L215.66, 235.49"/><path stroke="black" fill="none" stroke-width="1" d="M216.49, 226.23L216.42, 226.36L216.19, 226.69L215.41, 227.73L214.33, 228.82L213.75, 229.22L213.16, 229.44L212.72, 229.42L212.55, 229.16L212.64, 228.73L212.97, 228.2L213.53, 227.62L214.32, 227.06L215.31, 226.58L216.49, 226.23"/><path stroke="black" fill="none" stroke-width="1" d="M223.16, 325.82L223.03, 325.66L222.65, 325.2L222.03, 324.46L221.17, 323.46L220.08, 322.22L218.77, 320.76L217.25, 319.11L215.53, 317.29L213.6, 315.32L211.5, 313.22L206.74, 308.71L201.33, 303.95L195.33, 299.11L188.79, 294.36L181.79, 289.86L174.38, 285.81L166.63, 282.36L162.65, 280.92L158.6, 279.7L154.51, 278.72L150.36, 278L146.18, 277.56L141.97, 277.42L137.74, 277.61L133.49, 278.15L129.44, 278.98L125.76, 280.02L122.45, 281.25L119.49, 282.65L116.88, 284.21L114.61, 285.9L112.66, 287.72L111.02, 289.64L109.69, 291.65L108.65, 293.72L107.89, 295.84L107.4, 297.99L107.18, 300.16L107.2, 302.32L107.46, 304.46L107.95, 306.57L108.66, 308.61L109.58, 310.59L110.69, 312.47L111.99, 314.24L113.46, 315.88L115.1, 317.38L116.89, 318.72L118.82, 319.87L120.89, 320.83L123.08, 321.57L125.38, 322.07L127.77, 322.33L130.26, 322.32L132.83, 322.02L135.47, 321.41L138.16, 320.48L136.31, 320.8L134.62, 320.83L133.11, 320.59L131.78, 320.1L130.62, 319.39L129.66, 318.48L128.88, 317.39L128.29, 316.14L127.89, 314.76L127.7, 313.27L127.7, 311.69L127.92, 310.04L128.34, 308.35L128.98, 306.64L129.84, 304.93L130.91, 303.23L132.21, 301.59L133.74, 300.01L135.5, 298.52L137.5, 297.14L139.73, 295.9L142.21, 294.82L144.94, 293.91L147.91, 293.2L151.14, 292.72L154.63, 292.49L158.37, 292.52L162.39, 292.84L166.67, 293.48L171.22, 294.45L176.05, 295.78L181.16, 297.48L185.75, 299.3L190.14, 301.31L194.31, 303.47L198.26, 305.74L201.97, 308.07L205.43, 310.44L208.62, 312.78L211.53, 315.05L214.15, 317.22L216.46, 319.24L218.45, 321.07L220.11, 322.67L221.43, 323.98L222.38, 324.97L222.96, 325.6L223.16, 325.82"/><path stroke="black" fill="none" stroke-width="1" d="M219.41, 324.65L215.5, 322.29L211.17, 319.96L206.57, 317.76L201.85, 315.81L197.15, 314.19L192.62, 313.01L188.41, 312.38L186.47, 312.31L184.66, 312.4L182.46, 312.79L180.6, 313.41L179.08, 314.22L177.88, 315.18L176.98, 316.25L176.38, 317.38L176.05, 318.53L175.99, 319.67L176.18, 320.73L176.61, 321.7L177.27, 322.51L178.13, 323.14L179.19, 323.54L180.43, 323.65L181.84, 323.46L183.41, 322.9L181.6, 324.44L179.76, 325.73L177.93, 326.78L176.09, 327.6L174.27, 328.21L172.46, 328.62L168.96, 328.86L165.64, 328.42L162.6, 327.39L159.89, 325.85L157.6, 323.9L155.79, 321.62L154.54, 319.1L153.93, 316.42L154.02, 313.69L154.35, 312.33L154.89, 310.98L155.64, 309.67L156.61, 308.39L157.82, 307.16L159.26, 306L160.96, 304.91L162.91, 303.9L165.19, 302.99L167.51, 302.31L169.86, 301.86L172.24, 301.61L177.05, 301.7L181.88, 302.47L186.67, 303.81L191.35, 305.6L195.87, 307.74L200.17, 310.12L204.19, 312.63L207.87, 315.17L211.15, 317.61L213.96, 319.85L216.26, 321.79L217.97, 323.31L218.59, 323.87L219.04, 324.3L219.32, 324.56L219.41, 324.65"/><path stroke="black" fill="none" stroke-width="1" d="M210.16, 252.15L210.92, 254.41L211.59, 256.99L212.2, 259.83L212.78, 262.91L213.99, 269.65L215.49, 276.92L214.46, 274.41L213.48, 271.72L212.45, 268.86L211.26, 265.85L209.81, 262.72L207.99, 259.49L205.71, 256.18L202.86, 252.82L204.32, 252.98L206.12, 253L208.11, 252.76L210.16, 252.15"/><path stroke="black" fill="none" stroke-width="1" d="M188.28, 233.7L189.22, 235.47L189.65, 237.39L190.08, 239.53L190.96, 244.15L191.95, 248.73L192.52, 250.81L193.16, 252.65L190.31, 251.08L187.25, 249.09L184.03, 246.68L180.72, 243.89L177.39, 240.75L174.09, 237.27L170.9, 233.48L167.88, 229.4L165.09, 225.06L162.59, 220.49L160.46, 215.7L158.74, 210.72L157.52, 205.58L156.85, 200.29L156.79, 194.89L157.41, 189.4L157.98, 186.87L158.74, 184.56L159.68, 182.47L160.78, 180.59L162.03, 178.9L163.41, 177.4L164.91, 176.09L166.52, 174.94L169.99, 173.15L173.72, 171.96L177.58, 171.31L181.48, 171.13L181.26, 171.31L180.42, 172.39L179.54, 173.86L178.67, 175.73L177.85, 177.97L177.12, 180.6L176.54, 183.6L176.14, 186.98L175.97, 190.74L176.07, 194.85L176.5, 199.34L177.28, 204.18L178.48, 209.39L180.14, 214.94L182.29, 220.85L184.99, 227.1L188.28, 233.7"/><path stroke="black" fill="none" stroke-width="1" d="M143.16, 248.9L151.09, 250.39L158.68, 252.54L165.93, 255.29L172.81, 258.59L179.31, 262.38L185.41, 266.6L191.09, 271.2L196.33, 276.12L201.11, 281.3L205.43, 286.69L209.26, 292.22L212.57, 297.85L215.37, 303.51L217.62, 309.15L219.3, 314.7L220.41, 320.12L216.53, 315.09L212.07, 309.93L207.07, 304.73L201.57, 299.59L195.58, 294.63L189.15, 289.94L182.3, 285.63L175.06, 281.79L167.47, 278.54L163.55, 277.16L159.55, 275.97L155.48, 274.98L151.34, 274.19L147.13, 273.63L142.86, 273.31L138.53, 273.23L134.15, 273.41L129.71, 273.87L125.23, 274.62L120.71, 275.67L116.14, 277.03L111.54, 278.71L106.91, 280.73L106.95, 280.49L107.07, 279.76L107.28, 278.59L107.57, 276.99L107.95, 275L108.42, 272.65L108.98, 269.97L109.65, 266.97L110.41, 263.7L111.27, 260.18L112.24, 256.44L113.31, 252.5L115.79, 244.16L118.72, 235.39L122.14, 226.42L126.05, 217.47L130.48, 208.77L132.9, 204.58L135.46, 200.55L138.15, 196.68L140.99, 193.03L143.97, 189.61L147.11, 186.44L150.39, 183.57L153.82, 181.02L157.41, 178.81L161.16, 176.98L159.17, 179.2L157.49, 181.54L156.09, 183.98L154.98, 186.52L154.13, 189.14L153.54, 191.83L153.19, 194.58L153.08, 197.38L153.2, 200.23L153.53, 203.1L154.79, 208.87L156.79, 214.62L159.42, 220.25L162.61, 225.68L166.26, 230.81L170.3, 235.56L174.64, 239.84L179.18, 243.54L183.85, 246.6L186.21, 247.85L188.56, 248.91L190.9, 249.75L193.22, 250.38L195.55, 251.54L195.18, 250.58L197.96, 252.96L200.69, 255.74L203.33, 258.89L205.89, 262.38L208.35, 266.15L210.7, 270.18L212.93, 274.41L215.03, 278.82L218.79, 287.99L221.89, 297.37L223.16, 302.04L224.24, 306.64L225.11, 311.14L225.76, 315.48L224.38, 311.15L222.65, 306.49L220.54, 301.56L218.03, 296.45L215.07, 291.24L211.64, 286L207.68, 280.8L203.18, 275.73L198.09, 270.87L192.39, 266.28L186.02, 262.05L182.58, 260.09L178.97, 258.24L175.17, 256.53L171.19, 254.95L167.02, 253.52L162.66, 252.25L158.09, 251.14L153.32, 250.2L148.35, 249.46L143.16, 248.9"/></svg>